<svg width="300" height="500" viewBox="0 0 300 500" xmlns="http://www.w3.org/2000/svg">
  <!-- Phone frame -->
  <rect width="300" height="500" rx="25" fill="#2D1B0F"/>
  <rect x="10" y="30" width="280" height="440" rx="15" fill="#F2E6D3"/>
  
  <!-- Header -->
  <rect x="15" y="35" width="270" height="60" fill="#FAF5F0"/>
  <text x="25" y="55" font-family="system-ui" font-size="18" font-weight="600" fill="#2D1B0F">My Coffee Beans</text>
  <circle cx="260" cy="65" r="15" fill="#B8763D"/>
  <text x="260" y="70" text-anchor="middle" font-family="system-ui" font-size="16" fill="white">+</text>
  
  <!-- Bean cards -->
  <rect x="25" y="110" width="250" height="80" rx="12" fill="#FAF5F0" stroke="#E8DDD0"/>
  <rect x="35" y="120" width="40" height="60" rx="8" fill="#5D3A1A"/>
  <text x="90" y="135" font-family="system-ui" font-size="16" font-weight="500" fill="#2D1B0F">Ethiopian Yirgacheffe</text>
  <text x="90" y="150" font-family="system-ui" font-size="12" fill="#5D3A1A">Light Roast • Single Origin</text>
  <text x="90" y="165" font-family="system-ui" font-size="12" fill="#5D3A1A">Roasted: Dec 15, 2024</text>
  <circle cx="255" cy="135" r="6" fill="#B8763D"/>
  <text x="255" y="155" text-anchor="middle" font-family="system-ui" font-size="10" fill="#5D3A1A">Fresh</text>
  
  <rect x="25" y="210" width="250" height="80" rx="12" fill="#FAF5F0" stroke="#E8DDD0"/>
  <rect x="35" y="220" width="40" height="60" rx="8" fill="#2D1B0F"/>
  <text x="90" y="235" font-family="system-ui" font-size="16" font-weight="500" fill="#2D1B0F">Brazilian Santos</text>
  <text x="90" y="250" font-family="system-ui" font-size="12" fill="#5D3A1A">Medium Roast • Blend</text>
  <text x="90" y="265" font-family="system-ui" font-size="12" fill="#5D3A1A">Roasted: Dec 10, 2024</text>
  <circle cx="255" cy="235" r="6" fill="#7BA5A3"/>
  <text x="255" y="255" text-anchor="middle" font-family="system-ui" font-size="10" fill="#5D3A1A">Good</text>
  
  <rect x="25" y="310" width="250" height="80" rx="12" fill="#FAF5F0" stroke="#E8DDD0"/>
  <rect x="35" y="320" width="40" height="60" rx="8" fill="#B8763D"/>
  <text x="90" y="335" font-family="system-ui" font-size="16" font-weight="500" fill="#2D1B0F">Colombian Huila</text>
  <text x="90" y="350" font-family="system-ui" font-size="12" fill="#5D3A1A">Dark Roast • Single Origin</text>
  <text x="90" y="365" font-family="system-ui" font-size="12" fill="#5D3A1A">Roasted: Nov 28, 2024</text>
  <circle cx="255" cy="335" r="6" fill="none" stroke="#D32F2F" stroke-width="1"/>
  <text x="255" y="355" text-anchor="middle" font-family="system-ui" font-size="10" fill="#D32F2F">Stale</text>
</svg>
